<mxfile host="app.diagrams.net" agent="Mozilla/5.0 (Windows NT 10.0; Win64; x64; rv:133.0) Gecko/20100101 Firefox/133.0" version="24.8.8">
  <diagram name="Page-1" id="mDdxMRRnXEYXMjX8rkWW">
    <mxGraphModel dx="1900" dy="529" grid="1" gridSize="10" guides="1" tooltips="1" connect="1" arrows="1" fold="1" page="1" pageScale="1" pageWidth="850" pageHeight="1100" math="0" shadow="0">
      <root>
        <mxCell id="0" />
        <mxCell id="1" parent="0" />
        <mxCell id="9yKV02PK0AYWfD7Fz8SK-6" value="" style="edgeStyle=orthogonalEdgeStyle;rounded=0;orthogonalLoop=1;jettySize=auto;html=1;entryX=0.5;entryY=-0.011;entryDx=0;entryDy=0;entryPerimeter=0;" edge="1" parent="1" source="9yKV02PK0AYWfD7Fz8SK-1" target="9yKV02PK0AYWfD7Fz8SK-2">
          <mxGeometry relative="1" as="geometry">
            <mxPoint x="370" y="80" as="targetPoint" />
          </mxGeometry>
        </mxCell>
        <mxCell id="9yKV02PK0AYWfD7Fz8SK-1" value="" style="ellipse;fillColor=strokeColor;html=1;" vertex="1" parent="1">
          <mxGeometry x="400" y="40" width="30" height="30" as="geometry" />
        </mxCell>
        <mxCell id="9yKV02PK0AYWfD7Fz8SK-2" value="&lt;div&gt;Initialization&lt;/div&gt;" style="shape=umlFrame;whiteSpace=wrap;html=1;pointerEvents=0;recursiveResize=0;container=1;collapsible=0;width=160;" vertex="1" parent="1">
          <mxGeometry x="150" y="120" width="640" height="260" as="geometry" />
        </mxCell>
        <mxCell id="9yKV02PK0AYWfD7Fz8SK-36" style="edgeStyle=orthogonalEdgeStyle;rounded=0;orthogonalLoop=1;jettySize=auto;html=1;exitX=0;exitY=0.5;exitDx=0;exitDy=0;entryX=0.75;entryY=0;entryDx=0;entryDy=0;" edge="1" parent="9yKV02PK0AYWfD7Fz8SK-2" source="9yKV02PK0AYWfD7Fz8SK-3" target="9yKV02PK0AYWfD7Fz8SK-26">
          <mxGeometry relative="1" as="geometry">
            <Array as="points">
              <mxPoint x="430" y="65" />
              <mxPoint x="430" y="160" />
              <mxPoint x="358" y="160" />
            </Array>
          </mxGeometry>
        </mxCell>
        <mxCell id="9yKV02PK0AYWfD7Fz8SK-3" value="Set Window_Size = 600" style="html=1;align=center;verticalAlign=top;rounded=1;absoluteArcSize=1;arcSize=10;dashed=0;whiteSpace=wrap;" vertex="1" parent="9yKV02PK0AYWfD7Fz8SK-2">
          <mxGeometry x="452.5" y="20" width="150" height="30" as="geometry" />
        </mxCell>
        <mxCell id="9yKV02PK0AYWfD7Fz8SK-21" style="edgeStyle=orthogonalEdgeStyle;rounded=0;orthogonalLoop=1;jettySize=auto;html=1;exitX=0.5;exitY=1;exitDx=0;exitDy=0;entryX=0.5;entryY=0;entryDx=0;entryDy=0;" edge="1" parent="9yKV02PK0AYWfD7Fz8SK-2" source="9yKV02PK0AYWfD7Fz8SK-4" target="9yKV02PK0AYWfD7Fz8SK-9">
          <mxGeometry relative="1" as="geometry" />
        </mxCell>
        <mxCell id="9yKV02PK0AYWfD7Fz8SK-4" value="Agents = []" style="html=1;align=center;verticalAlign=top;rounded=1;absoluteArcSize=1;arcSize=10;dashed=0;whiteSpace=wrap;" vertex="1" parent="9yKV02PK0AYWfD7Fz8SK-2">
          <mxGeometry x="270" y="20" width="140" height="30" as="geometry" />
        </mxCell>
        <mxCell id="9yKV02PK0AYWfD7Fz8SK-35" style="edgeStyle=orthogonalEdgeStyle;rounded=0;orthogonalLoop=1;jettySize=auto;html=1;exitX=0;exitY=0.5;exitDx=0;exitDy=0;entryX=1;entryY=0.5;entryDx=0;entryDy=0;" edge="1" parent="9yKV02PK0AYWfD7Fz8SK-2" source="9yKV02PK0AYWfD7Fz8SK-7" target="9yKV02PK0AYWfD7Fz8SK-26">
          <mxGeometry relative="1" as="geometry" />
        </mxCell>
        <mxCell id="9yKV02PK0AYWfD7Fz8SK-7" value="Game = game.Game(rounds)" style="html=1;align=center;verticalAlign=top;rounded=1;absoluteArcSize=1;arcSize=10;dashed=0;whiteSpace=wrap;" vertex="1" parent="9yKV02PK0AYWfD7Fz8SK-2">
          <mxGeometry x="440" y="170" width="175" height="30" as="geometry" />
        </mxCell>
        <mxCell id="9yKV02PK0AYWfD7Fz8SK-23" style="edgeStyle=orthogonalEdgeStyle;rounded=0;orthogonalLoop=1;jettySize=auto;html=1;exitX=1;exitY=0.5;exitDx=0;exitDy=0;entryX=0;entryY=0.5;entryDx=0;entryDy=0;" edge="1" parent="9yKV02PK0AYWfD7Fz8SK-2" source="9yKV02PK0AYWfD7Fz8SK-8" target="9yKV02PK0AYWfD7Fz8SK-9">
          <mxGeometry relative="1" as="geometry" />
        </mxCell>
        <mxCell id="9yKV02PK0AYWfD7Fz8SK-8" value="Agents[i] = random agent" style="html=1;align=center;verticalAlign=top;rounded=1;absoluteArcSize=1;arcSize=10;dashed=0;whiteSpace=wrap;" vertex="1" parent="9yKV02PK0AYWfD7Fz8SK-2">
          <mxGeometry x="50" y="75" width="175" height="30" as="geometry" />
        </mxCell>
        <mxCell id="9yKV02PK0AYWfD7Fz8SK-22" style="edgeStyle=orthogonalEdgeStyle;rounded=0;orthogonalLoop=1;jettySize=auto;html=1;exitX=0.25;exitY=1;exitDx=0;exitDy=0;entryX=0.5;entryY=1;entryDx=0;entryDy=0;" edge="1" parent="9yKV02PK0AYWfD7Fz8SK-2" source="9yKV02PK0AYWfD7Fz8SK-9" target="9yKV02PK0AYWfD7Fz8SK-8">
          <mxGeometry relative="1" as="geometry" />
        </mxCell>
        <mxCell id="9yKV02PK0AYWfD7Fz8SK-37" value="" style="edgeStyle=orthogonalEdgeStyle;rounded=0;orthogonalLoop=1;jettySize=auto;html=1;" edge="1" parent="9yKV02PK0AYWfD7Fz8SK-2" source="9yKV02PK0AYWfD7Fz8SK-9" target="9yKV02PK0AYWfD7Fz8SK-26">
          <mxGeometry relative="1" as="geometry" />
        </mxCell>
        <mxCell id="9yKV02PK0AYWfD7Fz8SK-9" value="i &amp;lt; 20?" style="html=1;align=center;verticalAlign=top;rounded=1;absoluteArcSize=1;arcSize=10;dashed=0;whiteSpace=wrap;" vertex="1" parent="9yKV02PK0AYWfD7Fz8SK-2">
          <mxGeometry x="270" y="75" width="140" height="30" as="geometry" />
        </mxCell>
        <mxCell id="9yKV02PK0AYWfD7Fz8SK-24" value="Yes" style="text;html=1;align=center;verticalAlign=middle;resizable=0;points=[];autosize=1;strokeColor=none;fillColor=none;" vertex="1" parent="9yKV02PK0AYWfD7Fz8SK-2">
          <mxGeometry x="210" y="125" width="40" height="30" as="geometry" />
        </mxCell>
        <mxCell id="9yKV02PK0AYWfD7Fz8SK-26" value="Game_World(Agents,Window_size, Game)" style="html=1;align=center;verticalAlign=top;rounded=1;absoluteArcSize=1;arcSize=10;dashed=0;whiteSpace=wrap;" vertex="1" parent="9yKV02PK0AYWfD7Fz8SK-2">
          <mxGeometry x="180" y="170" width="237.5" height="30" as="geometry" />
        </mxCell>
        <mxCell id="9yKV02PK0AYWfD7Fz8SK-32" value="" style="edgeStyle=orthogonalEdgeStyle;rounded=0;orthogonalLoop=1;jettySize=auto;html=1;" edge="1" parent="9yKV02PK0AYWfD7Fz8SK-2" source="9yKV02PK0AYWfD7Fz8SK-5" target="9yKV02PK0AYWfD7Fz8SK-7">
          <mxGeometry relative="1" as="geometry" />
        </mxCell>
        <mxCell id="9yKV02PK0AYWfD7Fz8SK-5" value="Set Rounds = 10000" style="html=1;align=center;verticalAlign=top;rounded=1;absoluteArcSize=1;arcSize=10;dashed=0;whiteSpace=wrap;" vertex="1" parent="9yKV02PK0AYWfD7Fz8SK-2">
          <mxGeometry x="457.5" y="75" width="140" height="30" as="geometry" />
        </mxCell>
        <mxCell id="9yKV02PK0AYWfD7Fz8SK-15" style="edgeStyle=orthogonalEdgeStyle;rounded=0;orthogonalLoop=1;jettySize=auto;html=1;entryX=0;entryY=0.5;entryDx=0;entryDy=0;" edge="1" parent="1" source="9yKV02PK0AYWfD7Fz8SK-10" target="9yKV02PK0AYWfD7Fz8SK-8">
          <mxGeometry relative="1" as="geometry">
            <Array as="points">
              <mxPoint x="180" y="180" />
              <mxPoint x="180" y="210" />
            </Array>
          </mxGeometry>
        </mxCell>
        <mxCell id="9yKV02PK0AYWfD7Fz8SK-10" value="Tit For Tat Agent" style="html=1;shape=mxgraph.infographic.ribbonSimple;notch1=0;notch2=20;align=center;verticalAlign=middle;fontSize=14;fontStyle=0;fillColor=#FFFFFF;whiteSpace=wrap;" vertex="1" parent="1">
          <mxGeometry x="-40" y="160" width="160" height="40" as="geometry" />
        </mxCell>
        <mxCell id="9yKV02PK0AYWfD7Fz8SK-14" style="edgeStyle=orthogonalEdgeStyle;rounded=0;orthogonalLoop=1;jettySize=auto;html=1;exitX=1;exitY=0.5;exitDx=0;exitDy=0;exitPerimeter=0;entryX=0;entryY=0.5;entryDx=0;entryDy=0;" edge="1" parent="1" source="9yKV02PK0AYWfD7Fz8SK-11" target="9yKV02PK0AYWfD7Fz8SK-8">
          <mxGeometry relative="1" as="geometry">
            <mxPoint x="110" y="400" as="targetPoint" />
            <Array as="points">
              <mxPoint x="180" y="240" />
              <mxPoint x="180" y="210" />
            </Array>
          </mxGeometry>
        </mxCell>
        <mxCell id="9yKV02PK0AYWfD7Fz8SK-11" value="Defect Agent" style="html=1;shape=mxgraph.infographic.ribbonSimple;notch1=0;notch2=20;align=center;verticalAlign=middle;fontSize=14;fontStyle=0;fillColor=#FFFFFF;whiteSpace=wrap;" vertex="1" parent="1">
          <mxGeometry x="-40" y="220" width="160" height="40" as="geometry" />
        </mxCell>
        <mxCell id="9yKV02PK0AYWfD7Fz8SK-13" style="edgeStyle=orthogonalEdgeStyle;rounded=0;orthogonalLoop=1;jettySize=auto;html=1;exitX=1;exitY=0.5;exitDx=0;exitDy=0;exitPerimeter=0;entryX=0;entryY=0.5;entryDx=0;entryDy=0;" edge="1" parent="1" source="9yKV02PK0AYWfD7Fz8SK-12" target="9yKV02PK0AYWfD7Fz8SK-8">
          <mxGeometry relative="1" as="geometry">
            <Array as="points">
              <mxPoint x="180" y="300" />
              <mxPoint x="180" y="210" />
            </Array>
          </mxGeometry>
        </mxCell>
        <mxCell id="9yKV02PK0AYWfD7Fz8SK-12" value="Cooperate Agent" style="html=1;shape=mxgraph.infographic.ribbonSimple;notch1=0;notch2=20;align=center;verticalAlign=middle;fontSize=14;fontStyle=0;fillColor=#FFFFFF;whiteSpace=wrap;" vertex="1" parent="1">
          <mxGeometry x="-40" y="280" width="160" height="40" as="geometry" />
        </mxCell>
      </root>
    </mxGraphModel>
  </diagram>
</mxfile>
